<svg id="svg" xmlns="http://www.w3.org/2000/svg" xmlns:xlink="http://www.w3.org/1999/xlink" width="500" height="314.0625" viewBox="0, 0, 500,314.0625"><g id="svgg"><path id="path0" d="M281.503 0.273 C 250.891 2.478,229.542 11.301,206.259 31.371 C 196.395 39.874,197.612 39.457,182.682 39.445 C 167.576 39.434,154.150 38.203,128.672 34.492 C 117.542 32.870,117.448 32.863,117.448 33.598 C 117.448 35.597,120.443 62.339,120.716 62.782 C 120.882 63.050,455.301 63.062,462.752 62.794 L 467.301 62.630 468.918 47.789 C 469.807 39.627,470.511 32.924,470.481 32.894 C 470.451 32.864,466.094 33.478,460.799 34.258 C 434.201 38.174,416.374 39.762,401.823 39.509 C 390.485 39.312,391.161 39.569,382.418 32.131 C 370.287 21.810,365.246 18.241,356.115 13.506 C 336.006 3.078,309.016 -1.709,281.503 0.273 M248.247 30.001 C 252.010 32.077,251.160 38.304,246.810 40.523 C 245.284 41.302,245.260 40.951,247.158 45.527 C 249.348 50.810,248.858 50.459,254.213 50.564 C 258.966 50.657,259.524 50.835,259.320 52.186 C 259.117 53.526,258.129 53.776,253.029 53.776 C 246.538 53.776,247.129 54.267,243.744 46.065 C 242.569 43.216,241.464 40.885,241.290 40.885 C 241.115 40.885,240.055 43.083,238.935 45.768 C 235.373 54.307,233.107 56.635,228.385 56.603 C 219.515 56.545,218.894 44.738,227.515 40.048 C 231.174 38.057,235.938 38.064,235.938 40.061 C 235.938 41.320,235.459 41.642,232.943 42.078 C 227.784 42.973,225.391 45.209,225.391 49.134 C 225.391 51.396,225.920 52.294,227.571 52.827 C 231.119 53.974,232.541 52.141,237.442 40.104 C 240.816 31.816,240.629 32.552,239.357 32.552 C 236.574 32.552,235.781 30.159,238.305 29.375 C 239.820 28.904,247.089 29.362,248.247 30.001 M243.257 35.221 C 241.959 38.453,241.954 38.542,243.044 38.542 C 246.084 38.542,248.392 34.671,246.342 33.010 C 244.981 31.909,244.427 32.306,243.257 35.221 M282.903 34.919 C 283.195 35.335,283.223 35.655,283.023 36.286 C 282.448 38.103,282.458 38.201,283.243 38.398 C 285.538 38.974,284.965 40.927,282.384 41.324 C 281.002 41.537,280.916 41.636,279.946 44.146 C 278.973 46.663,278.964 46.629,280.651 46.809 C 282.606 47.019,283.200 48.031,282.003 49.113 C 281.097 49.933,276.446 49.844,275.758 48.995 C 275.064 48.137,275.110 47.821,276.413 44.494 L 277.565 41.550 276.738 41.283 C 274.881 40.682,275.663 38.816,277.947 38.398 C 278.848 38.234,279.002 38.080,279.585 36.760 C 280.653 34.347,281.985 33.608,282.903 34.919 M364.982 35.001 C 365.354 35.569,365.354 35.718,364.988 36.596 C 364.429 37.932,364.475 38.198,365.298 38.404 C 367.571 38.975,366.980 40.930,364.416 41.324 C 363.036 41.536,362.898 41.688,362.020 43.964 C 361.595 45.064,361.166 46.169,361.065 46.419 C 360.903 46.823,361.059 46.875,362.420 46.875 C 364.061 46.875,364.583 47.161,364.583 48.059 C 364.583 49.237,363.707 49.609,360.937 49.609 C 356.909 49.609,356.604 49.038,358.333 44.729 C 359.581 41.619,359.582 41.599,358.594 41.226 C 356.945 40.603,357.625 39.008,359.771 38.461 C 360.898 38.174,361.031 38.050,361.555 36.804 C 362.580 34.369,364.058 33.591,364.982 35.001 M318.252 36.616 C 318.443 36.846,318.724 37.286,318.877 37.593 C 319.127 38.096,319.427 38.165,321.921 38.293 C 324.841 38.443,325.524 38.706,325.517 39.680 C 325.511 40.526,325.211 40.834,323.970 41.272 C 322.542 41.776,322.224 42.039,321.310 43.475 C 319.862 45.750,320.390 46.631,323.313 46.819 C 325.450 46.956,325.936 47.265,325.671 48.321 C 325.405 49.380,324.003 49.830,321.461 49.673 C 317.210 49.409,316.014 47.096,318.229 43.422 C 319.477 41.353,319.471 41.406,318.477 41.406 C 317.859 41.406,317.586 41.585,317.240 42.213 C 316.158 44.183,315.189 44.773,314.375 43.958 C 313.884 43.467,313.990 42.902,315.115 40.044 C 316.406 36.763,317.438 35.636,318.252 36.616 M270.521 36.771 C 270.693 36.943,270.833 37.686,270.833 38.423 C 270.833 39.549,271.003 40.026,271.899 41.411 C 275.128 46.408,273.526 49.451,267.542 49.691 C 262.560 49.890,262.235 47.189,267.190 46.776 C 270.395 46.509,270.971 45.704,269.699 43.273 L 269.108 42.144 268.405 43.208 C 267.250 44.953,264.948 44.360,265.655 42.500 C 267.358 38.020,269.384 35.634,270.521 36.771 M260.652 38.789 C 264.411 40.707,262.631 44.852,257.911 45.174 C 254.672 45.396,254.811 45.346,255.403 46.078 C 255.872 46.657,256.130 46.707,259.342 46.851 C 262.983 47.014,263.454 47.196,263.107 48.306 C 262.618 49.873,256.190 50.405,253.901 49.068 C 248.213 45.746,254.757 35.782,260.652 38.789 M292.859 38.815 C 293.716 39.344,293.729 39.344,294.712 38.846 C 297.201 37.587,297.546 38.906,295.852 43.206 C 295.126 45.051,294.531 46.631,294.531 46.718 C 294.531 46.804,295.167 46.875,295.945 46.875 C 297.993 46.875,298.787 47.827,297.671 48.944 C 296.723 49.892,293.460 50.004,292.486 49.123 C 292.060 48.738,291.943 48.747,290.999 49.241 C 289.578 49.985,286.985 49.819,286.025 48.922 C 281.781 44.958,287.976 35.797,292.859 38.815 M304.778 38.825 C 305.222 39.459,305.152 39.770,303.809 43.084 C 302.470 46.387,302.678 47.172,304.742 46.602 C 306.001 46.255,306.307 45.833,307.574 42.708 C 308.808 39.663,309.642 38.542,310.674 38.542 C 312.342 38.542,312.342 39.372,310.677 43.490 C 309.961 45.261,309.375 46.747,309.375 46.792 C 309.375 46.838,310.049 46.877,310.872 46.879 C 313.098 46.885,313.742 47.612,312.649 48.883 C 311.873 49.786,308.840 50.067,307.215 49.388 C 306.364 49.033,306.143 49.030,305.347 49.362 C 302.568 50.524,299.219 49.290,299.219 47.105 C 299.219 46.162,300.689 42.067,301.830 39.829 C 302.637 38.247,304.039 37.770,304.778 38.825 M335.419 38.934 C 335.936 39.403,335.979 39.401,337.034 38.865 C 337.818 38.467,338.246 38.384,338.584 38.564 C 339.621 39.119,339.584 39.599,338.243 43.067 C 336.789 46.829,336.777 46.629,338.464 46.809 C 339.946 46.968,340.365 47.246,340.365 48.073 C 340.365 49.431,337.445 50.187,335.325 49.378 C 334.284 48.980,334.127 48.980,333.182 49.374 C 328.813 51.200,325.518 47.207,327.573 42.578 C 329.121 39.090,333.397 37.104,335.419 38.934 M347.684 38.979 C 348.042 39.285,348.280 39.260,349.333 38.809 C 353.490 37.027,355.218 39.376,353.300 44.200 C 352.774 45.522,352.344 46.664,352.344 46.739 C 352.344 46.814,353.039 46.875,353.888 46.875 C 357.532 46.875,356.817 49.439,353.107 49.674 C 348.906 49.941,348.109 49.131,349.331 45.833 C 350.841 41.761,350.819 41.146,349.167 41.146 C 347.996 41.146,347.115 42.251,345.845 45.313 C 344.194 49.294,343.381 50.227,342.005 49.718 C 340.951 49.327,341.058 48.629,342.850 44.223 C 345.313 38.164,345.938 37.486,347.684 38.979 M257.094 41.155 C 256.528 41.382,255.772 42.578,256.031 42.836 C 256.381 43.187,259.242 42.556,259.328 42.109 C 259.526 41.081,258.437 40.615,257.094 41.155 M290.234 41.135 C 288.160 41.999,286.954 45.553,288.410 46.508 C 290.063 47.590,291.946 45.813,292.596 42.556 C 292.864 41.211,291.714 40.519,290.234 41.135 M332.031 41.471 C 329.239 43.377,329.632 47.414,332.541 46.704 C 333.354 46.506,335.113 43.418,335.151 42.122 C 335.183 41.011,333.285 40.615,332.031 41.471 M120.251 69.336 C 120.079 79.468,118.827 82.908,110.578 95.910 C 105.116 104.519,98.902 112.524,93.034 118.511 C 90.706 120.886,88.880 122.908,88.976 123.003 C 89.071 123.099,88.937 123.177,88.677 123.177 C 87.545 123.177,88.607 130.904,90.178 134.096 C 93.243 140.321,97.154 141.676,112.760 141.916 C 118.704 142.008,123.421 142.106,123.242 142.135 C 123.024 142.170,122.917 142.702,122.917 143.750 L 122.917 145.313 132.487 145.316 C 137.751 145.318,142.321 145.390,142.643 145.477 C 144.418 145.952,142.309 146.094,133.398 146.098 C 127.992 146.100,123.417 146.197,123.233 146.314 C 122.986 146.471,122.918 147.270,122.973 149.370 L 123.047 152.214 133.159 152.282 C 141.057 152.335,143.247 152.420,143.163 152.672 C 143.081 152.920,140.710 153.011,132.986 153.063 L 122.917 153.131 122.917 156.120 L 122.917 159.108 133.008 159.177 C 139.516 159.221,143.099 159.337,143.099 159.505 C 143.099 159.673,139.516 159.790,133.008 159.834 L 122.917 159.902 122.917 163.024 L 122.917 166.146 133.073 166.146 C 142.279 166.146,144.429 166.284,142.643 166.763 C 142.321 166.849,137.751 166.922,132.487 166.924 L 122.917 166.927 122.917 169.919 L 122.917 172.911 133.008 172.979 C 139.516 173.023,143.099 173.139,143.099 173.307 C 143.099 173.475,139.516 173.592,133.008 173.636 L 122.917 173.704 122.917 176.696 L 122.917 179.688 132.487 179.691 C 137.751 179.693,142.320 179.765,142.640 179.851 C 144.349 180.309,142.043 180.469,133.741 180.469 C 128.683 180.469,124.178 180.542,123.730 180.632 L 122.917 180.794 122.917 183.757 L 122.917 186.719 131.532 186.719 C 138.309 186.719,140.124 186.788,140.039 187.044 C 139.956 187.294,137.947 187.386,131.415 187.438 L 122.900 187.507 122.973 190.433 L 123.047 193.359 131.250 193.499 C 135.762 193.576,139.482 193.664,139.518 193.694 C 140.077 194.173,138.677 194.271,131.250 194.271 L 122.917 194.271 122.917 197.396 L 122.917 200.521 131.901 200.521 C 139.714 200.521,140.885 200.572,140.885 200.911 C 140.885 201.251,139.713 201.302,131.893 201.302 L 122.900 201.302 122.973 204.232 L 123.047 207.161 132.422 207.237 C 143.868 207.328,143.490 207.376,143.490 205.848 C 143.490 204.983,143.389 204.688,143.093 204.688 C 142.476 204.687,140.104 195.538,140.104 193.158 L 140.104 192.448 179.565 192.448 C 213.102 192.448,219.048 192.503,219.166 192.812 C 219.311 193.189,217.358 202.712,216.877 203.971 C 216.713 204.401,216.408 204.688,216.114 204.688 C 215.701 204.688,215.625 204.889,215.625 205.990 L 215.625 207.292 230.534 207.288 C 238.734 207.286,245.706 207.214,246.029 207.128 C 246.836 206.911,246.905 204.824,246.112 204.617 C 245.787 204.532,245.505 204.099,245.315 203.396 C 244.730 201.221,243.051 192.713,243.182 192.582 C 243.543 192.221,322.153 192.450,322.292 192.813 C 322.587 193.582,319.993 204.491,319.484 204.625 C 319.108 204.723,319.010 205.010,319.010 206.020 L 319.010 207.292 338.346 207.288 C 357.547 207.284,358.118 207.262,358.404 206.510 C 358.486 206.296,358.553 208.288,358.553 210.938 C 358.553 213.587,358.494 215.609,358.421 215.430 C 358.318 215.173,354.092 215.104,338.520 215.104 L 318.750 215.104 318.750 214.518 L 318.749 213.932 323.791 214.160 C 326.564 214.286,335.471 214.301,343.583 214.194 L 358.333 214.000 358.333 211.037 L 358.333 208.073 338.563 208.073 C 322.991 208.073,318.766 208.142,318.662 208.398 C 318.590 208.577,318.521 207.874,318.510 206.836 L 318.490 204.948 282.682 204.948 L 246.875 204.948 246.833 207.357 C 246.810 208.682,246.744 209.385,246.687 208.919 L 246.582 208.073 231.116 208.073 L 215.651 208.073 215.557 209.570 C 215.505 210.394,215.441 209.691,215.414 208.008 L 215.365 204.948 179.557 204.948 L 143.750 204.948 143.708 221.159 C 143.685 230.075,143.619 236.989,143.562 236.523 L 143.457 235.677 133.599 235.677 C 121.925 235.677,122.917 235.469,122.917 237.918 L 122.917 239.844 124.023 239.870 C 125.009 239.893,122.596 240.514,117.448 241.562 C 117.090 241.635,115.977 241.863,114.974 242.068 C 113.971 242.273,111.050 242.863,108.482 243.379 C 105.914 243.894,102.457 244.606,100.800 244.961 C 96.745 245.828,97.311 245.713,89.974 247.167 C 86.393 247.876,82.702 248.624,81.771 248.828 C 80.840 249.033,79.199 249.378,78.125 249.595 C 77.051 249.813,74.648 250.303,72.786 250.686 C 69.421 251.377,69.355 251.380,61.458 251.218 C 48.250 250.948,35.945 251.521,28.303 252.763 C 25.033 253.294,24.825 253.461,26.699 254.050 C 29.284 254.863,30.948 256.382,30.633 257.641 C 30.319 258.891,25.996 259.942,9.411 262.801 C 4.203 263.699,0.081 264.480,0.252 264.537 C 0.423 264.594,15.524 264.517,33.810 264.365 C 74.118 264.030,80.544 264.148,85.026 265.308 C 106.717 270.918,186.398 271.215,256.380 265.946 C 269.514 264.957,295.189 265.025,333.168 266.148 L 341.467 266.394 349.054 264.558 C 362.501 261.303,368.583 260.307,385.417 258.604 C 396.322 257.500,411.660 256.117,420.182 255.468 C 429.559 254.754,433.588 253.839,431.736 252.845 C 430.931 252.413,424.294 252.128,413.802 252.076 L 405.599 252.035 409.896 251.156 C 412.259 250.672,415.130 250.101,416.276 249.886 C 417.422 249.672,419.473 249.251,420.833 248.950 C 422.194 248.650,423.893 248.306,424.609 248.185 C 425.326 248.064,428.255 247.472,431.120 246.870 C 433.984 246.268,436.696 245.719,437.145 245.649 L 437.963 245.523 437.856 246.655 C 437.746 247.817,436.517 267.908,435.803 280.208 C 435.090 292.493,434.253 302.229,433.889 302.451 C 433.798 302.507,426.283 304.211,417.188 306.238 C 399.851 310.101,399.857 310.100,400.041 310.284 C 400.105 310.348,405.920 309.114,412.964 307.544 L 425.772 304.687 450.321 304.709 L 474.870 304.730 455.208 309.186 L 435.547 313.641 420.833 313.793 L 406.120 313.945 420.443 314.003 L 434.766 314.061 466.509 308.463 C 483.968 305.384,498.646 302.865,499.127 302.865 C 500.197 302.865,500.178 303.241,499.482 295.783 C 499.197 292.731,498.199 281.504,497.263 270.833 C 496.328 260.163,495.332 248.854,495.050 245.703 C 494.769 242.552,494.067 234.583,493.490 227.995 C 492.913 221.406,492.355 215.137,492.250 214.063 L 492.057 212.109 477.865 211.979 L 463.672 211.849 463.411 209.896 L 463.151 207.943 448.047 207.810 L 432.943 207.678 448.047 207.550 L 463.151 207.422 463.281 205.853 C 463.353 204.989,463.372 203.554,463.323 202.662 L 463.235 201.042 448.154 201.042 C 438.274 201.042,433.073 200.952,433.073 200.781 C 433.073 200.611,438.269 200.521,448.141 200.521 L 463.209 200.521 463.348 198.989 C 463.424 198.147,463.424 196.682,463.348 195.734 L 463.210 194.010 448.076 193.948 L 432.943 193.887 448.047 193.753 L 463.151 193.620 463.326 192.318 C 463.422 191.602,463.435 190.167,463.355 189.130 L 463.210 187.244 448.076 187.174 L 432.943 187.105 448.076 187.042 L 463.210 186.979 463.346 185.286 C 463.421 184.355,463.421 182.838,463.347 181.914 L 463.212 180.234 462.010 180.138 L 460.807 180.042 462.007 179.995 L 463.206 179.948 463.356 178.320 C 463.439 177.425,463.440 175.966,463.359 175.078 L 463.211 173.463 462.009 173.367 L 460.807 173.271 462.007 173.224 L 463.206 173.177 463.356 171.549 C 463.439 170.654,463.440 169.189,463.358 168.294 L 463.209 166.667 462.008 166.636 L 460.807 166.605 462.010 166.353 L 463.213 166.102 463.338 164.496 C 463.407 163.613,463.408 162.164,463.342 161.276 L 463.221 159.661 462.014 159.565 L 460.807 159.469 462.009 159.422 L 463.210 159.375 463.348 157.651 C 463.424 156.703,463.424 155.238,463.348 154.396 L 463.209 152.865 462.008 152.821 L 460.807 152.777 461.849 152.673 C 463.287 152.530,463.296 152.509,463.303 149.450 C 463.311 145.509,463.815 145.857,457.982 145.768 L 452.995 145.691 458.138 145.632 L 463.281 145.573 463.281 143.750 L 463.281 141.927 474.232 141.927 C 483.307 141.927,485.505 141.856,487.058 141.511 C 494.338 139.896,498.754 134.248,499.386 125.745 C 499.548 123.566,499.535 123.490,498.961 123.308 C 498.547 123.177,498.466 123.060,498.693 122.920 C 498.915 122.783,497.864 121.573,495.379 119.107 C 488.287 112.067,481.292 102.760,474.094 90.784 C 468.739 81.875,467.739 78.594,467.523 69.206 L 467.387 63.281 293.871 63.281 L 120.354 63.281 120.251 69.336 M296.940 123.371 L 294.010 123.455 294.010 124.990 C 294.010 130.495,295.703 135.173,298.655 137.826 C 299.252 138.363,299.624 138.802,299.480 138.802 C 299.327 138.802,299.219 139.666,299.219 140.885 L 299.219 142.969 291.541 142.969 L 283.864 142.969 283.706 142.253 C 283.619 141.859,283.523 141.429,283.492 141.298 C 283.460 141.167,284.262 140.649,285.272 140.146 C 290.142 137.722,293.276 132.339,293.673 125.716 L 293.826 123.177 296.848 123.233 L 299.870 123.288 296.940 123.371 M362.500 124.837 C 362.500 125.750,362.570 126.847,362.655 127.274 C 362.762 127.805,362.698 128.093,362.453 128.187 C 362.166 128.298,362.098 127.826,362.103 125.752 C 362.106 124.337,362.197 123.179,362.305 123.179 C 362.412 123.178,362.500 123.924,362.500 124.837 M433.984 123.332 C 432.747 123.531,430.990 123.556,430.990 123.374 C 430.990 123.266,431.781 123.193,432.747 123.213 C 433.714 123.232,434.271 123.286,433.984 123.332 M225.111 128.193 C 224.871 128.514,224.737 128.591,224.812 128.366 C 224.887 128.140,225.048 127.144,225.170 126.152 L 225.391 124.349 225.468 125.980 C 225.526 127.190,225.434 127.761,225.111 128.193 M157.423 130.075 C 157.904 132.766,159.284 135.562,160.960 137.238 C 161.671 137.949,162.079 138.464,161.866 138.382 C 161.543 138.258,161.466 138.639,161.403 140.666 L 161.328 143.099 152.688 143.168 L 144.048 143.236 143.964 142.657 C 143.912 142.301,143.631 142.010,143.229 141.899 C 142.581 141.719,142.581 141.718,143.313 141.693 C 149.797 141.464,156.312 133.860,156.545 126.251 L 156.579 125.130 156.815 126.563 C 156.945 127.350,157.218 128.931,157.423 130.075 M431.246 127.034 C 431.248 127.369,431.135 127.564,430.990 127.474 C 430.846 127.385,430.731 126.939,430.733 126.482 C 430.736 125.850,430.797 125.744,430.990 126.042 C 431.128 126.257,431.244 126.703,431.246 127.034 M364.707 134.623 C 365.626 136.436,367.672 138.433,369.737 139.534 L 371.354 140.395 371.354 165.640 L 371.354 190.885 367.708 190.885 L 364.063 190.885 364.063 164.221 C 364.063 138.212,364.050 137.529,363.547 136.422 C 363.152 135.550,363.035 134.743,363.046 132.943 L 363.059 130.599 363.523 131.901 C 363.778 132.617,364.311 133.842,364.707 134.623 M427.344 163.542 L 427.344 190.885 423.574 190.885 L 419.805 190.885 419.733 166.576 C 419.677 147.580,419.590 142.182,419.335 141.875 C 419.056 141.538,419.272 141.385,420.854 140.801 C 422.887 140.050,425.736 138.153,426.616 136.963 C 426.927 136.542,427.218 136.198,427.263 136.198 C 427.307 136.198,427.344 148.503,427.344 163.542 M358.552 137.565 C 358.516 138.532,358.497 138.565,358.405 137.821 C 358.334 137.251,358.197 137.031,357.991 137.154 C 357.813 137.261,357.834 137.153,358.040 136.899 C 358.551 136.268,358.599 136.330,358.552 137.565 M164.901 139.974 C 168.671 141.700,169.176 141.752,183.724 141.923 C 191.029 142.009,196.813 142.103,196.577 142.133 C 196.342 142.163,196.082 142.363,196.000 142.578 C 195.871 142.913,194.769 142.969,188.281 142.969 C 181.794 142.969,180.691 142.913,180.563 142.578 C 180.353 142.032,178.993 142.079,178.677 142.643 C 178.364 143.203,173.566 143.394,167.253 143.099 L 163.281 142.914 163.281 141.118 C 163.281 140.131,163.326 139.323,163.380 139.323 C 163.434 139.323,164.119 139.616,164.901 139.974 M303.146 140.461 C 305.870 141.482,309.226 141.927,314.214 141.927 C 318.527 141.927,318.696 141.947,318.569 142.432 C 318.466 142.826,318.113 142.979,316.966 143.123 C 315.642 143.289,301.327 143.101,301.176 142.915 C 300.883 142.552,300.843 139.310,301.135 139.552 C 301.321 139.707,302.226 140.116,303.146 140.461 M215.405 141.797 L 215.312 142.969 206.677 142.969 C 198.444 142.969,198.027 142.945,197.730 142.469 C 197.425 141.981,197.599 141.966,204.894 141.866 C 211.822 141.772,215.446 141.356,215.497 140.651 C 215.498 140.637,215.457 141.152,215.405 141.797 M281.929 141.818 C 281.842 142.045,281.771 142.396,281.771 142.599 C 281.771 143.283,266.510 143.133,266.331 142.448 C 266.197 141.937,266.330 141.926,273.006 141.896 C 276.753 141.879,280.169 141.776,280.599 141.667 C 281.868 141.344,282.101 141.370,281.929 141.818 M396.029 141.924 L 414.063 141.927 414.063 190.625 L 414.063 239.323 395.443 239.323 L 376.823 239.323 376.823 190.464 L 376.823 141.606 377.409 141.763 C 377.731 141.849,386.110 141.922,396.029 141.924 M264.783 142.448 C 264.483 142.929,247.135 143.334,247.135 142.860 C 247.135 142.800,247.064 142.566,246.977 142.339 C 246.835 141.968,247.732 141.927,255.964 141.927 C 265.043 141.927,265.106 141.931,264.783 142.448 M345.075 144.153 C 346.364 144.819,347.550 146.218,347.907 147.491 L 348.245 148.698 351.466 148.698 L 354.688 148.698 354.727 160.221 C 354.773 173.826,354.678 184.193,354.507 184.375 C 354.266 184.630,331.907 184.640,331.510 184.385 C 331.082 184.109,330.737 154.642,331.115 150.611 L 331.294 148.698 334.373 148.698 L 337.451 148.698 337.866 147.480 C 338.094 146.810,338.281 146.224,338.281 146.178 C 338.281 146.131,334.004 146.094,328.776 146.094 C 320.051 146.094,318.378 145.975,319.727 145.452 C 319.977 145.354,324.411 145.304,329.579 145.340 L 338.975 145.406 339.865 144.741 C 341.589 143.455,343.342 143.257,345.075 144.153 M450.223 144.385 C 451.348 144.973,452.446 146.301,452.887 147.606 L 453.299 148.828 456.467 148.901 L 459.635 148.974 459.635 166.505 L 459.635 184.035 456.861 184.205 C 453.307 184.423,444.942 184.422,440.169 184.203 L 436.458 184.034 436.458 166.496 L 436.458 148.958 439.666 148.958 L 442.874 148.958 443.321 147.538 C 444.276 144.510,447.576 143.002,450.223 144.385 M340.452 144.911 C 339.312 145.610,338.021 147.714,338.021 148.871 C 338.021 149.451,337.953 149.465,334.831 149.536 L 331.641 149.609 331.563 165.104 C 331.520 173.626,331.559 181.331,331.649 182.227 L 331.812 183.854 342.404 183.851 C 348.229 183.849,353.258 183.776,353.581 183.690 L 354.167 183.533 354.167 166.376 L 354.167 149.219 351.033 149.219 C 348.276 149.219,347.884 149.164,347.762 148.763 C 346.530 144.703,343.444 143.076,340.452 144.911 M358.552 146.029 C 358.529 146.995,358.463 147.406,358.405 146.940 L 358.300 146.094 352.978 146.094 C 350.051 146.094,347.656 145.991,347.656 145.866 C 347.656 145.453,349.223 145.313,353.809 145.313 C 358.160 145.313,358.333 145.293,358.333 144.792 C 358.333 144.505,358.392 144.271,358.464 144.271 C 358.535 144.271,358.575 145.062,358.552 146.029 M446.224 144.521 C 445.316 144.899,444.262 146.232,443.619 147.816 L 442.996 149.349 439.858 149.422 L 436.719 149.495 436.719 166.675 L 436.719 183.854 448.047 183.854 L 459.375 183.854 459.375 166.536 L 459.375 149.219 456.226 149.219 C 453.192 149.219,453.071 149.198,452.925 148.641 C 452.033 145.229,449.001 143.365,446.224 144.521 M161.293 146.260 C 161.532 148.009,161.489 160.226,161.241 160.616 C 161.079 160.872,159.170 160.930,152.587 160.876 L 144.141 160.807 144.071 153.258 C 144.033 149.106,144.059 145.562,144.128 145.381 C 144.226 145.125,146.139 145.052,152.691 145.052 L 161.127 145.052 161.293 146.260 M178.585 152.847 C 178.638 158.805,178.580 160.558,178.324 160.720 C 178.143 160.835,174.684 160.931,170.638 160.934 L 163.281 160.938 163.281 153.142 L 163.281 145.347 163.997 145.237 C 164.391 145.176,167.819 145.139,171.615 145.154 L 178.516 145.182 178.585 152.847 M195.864 149.674 C 195.922 152.217,195.910 155.762,195.837 157.552 L 195.703 160.807 188.253 160.876 L 180.803 160.945 180.638 159.574 C 180.426 157.809,180.424 147.308,180.636 146.029 L 180.797 145.052 188.278 145.052 L 195.759 145.052 195.864 149.674 M215.365 152.995 L 215.365 160.938 206.641 160.938 L 197.917 160.938 197.917 152.995 L 197.917 145.052 206.641 145.052 L 215.365 145.052 215.365 152.995 M264.583 152.837 C 264.583 159.695,264.534 160.640,264.171 160.779 C 263.945 160.866,260.019 160.938,255.447 160.938 L 247.135 160.938 247.135 152.995 L 247.135 145.052 255.859 145.052 L 264.583 145.052 264.583 152.837 M281.185 145.216 L 281.771 145.373 281.771 153.155 L 281.771 160.938 274.256 160.938 L 266.741 160.938 266.574 159.337 C 266.344 157.136,266.370 146.033,266.606 145.664 C 266.943 145.136,279.450 144.751,281.185 145.216 M299.061 145.464 C 299.148 145.691,299.219 149.265,299.219 153.407 L 299.219 160.938 291.536 160.938 L 283.854 160.938 283.854 152.995 L 283.854 145.052 291.378 145.052 C 297.999 145.052,298.922 145.102,299.061 145.464 M318.490 152.995 L 318.490 160.938 309.766 160.938 L 301.042 160.938 301.042 152.995 L 301.042 145.052 309.766 145.052 L 318.490 145.052 318.490 152.995 M245.768 145.477 C 247.646 145.980,244.968 146.094,231.250 146.094 C 217.555 146.094,215.203 145.997,216.471 145.485 C 216.939 145.296,245.066 145.288,245.768 145.477 M358.590 152.669 C 358.588 153.278,358.497 153.637,358.389 153.467 C 358.281 153.297,357.619 153.122,356.916 153.077 C 355.125 152.962,354.991 152.344,356.757 152.344 C 357.701 152.344,358.133 152.230,358.239 151.953 C 358.490 151.298,358.594 151.510,358.590 152.669 M246.289 152.669 C 246.180 152.996,217.021 153.315,216.194 152.999 C 216.006 152.927,215.925 152.750,216.014 152.606 C 216.274 152.186,246.429 152.249,246.289 152.669 M330.208 152.734 C 330.208 153.069,329.458 153.125,325.021 153.125 C 319.890 153.125,318.877 153.030,319.157 152.577 C 319.432 152.133,330.208 152.286,330.208 152.734 M434.965 152.787 C 434.644 152.849,434.058 152.851,433.662 152.791 C 433.267 152.731,433.529 152.681,434.245 152.679 C 434.961 152.677,435.285 152.726,434.965 152.787 M358.564 159.701 C 358.547 160.309,358.480 160.602,358.414 160.352 C 358.319 159.988,358.009 159.896,356.882 159.896 C 355.799 159.896,355.469 159.804,355.469 159.505 C 355.469 159.205,355.802 159.115,356.901 159.115 C 357.689 159.115,358.333 158.997,358.333 158.854 C 358.333 158.711,358.392 158.594,358.464 158.594 C 358.535 158.594,358.580 159.092,358.564 159.701 M246.289 159.570 C 246.375 159.828,243.257 159.896,231.272 159.896 C 222.952 159.896,216.146 159.798,216.146 159.679 C 216.146 159.559,216.225 159.383,216.322 159.286 C 216.671 158.936,246.171 159.216,246.289 159.570 M330.143 159.570 C 330.275 159.964,319.397 160.051,319.154 159.658 C 318.879 159.213,319.655 159.150,324.848 159.198 C 328.732 159.233,330.062 159.327,330.143 159.570 M434.965 159.558 C 434.644 159.620,434.058 159.622,433.662 159.562 C 433.267 159.502,433.529 159.451,434.245 159.449 C 434.961 159.448,435.285 159.497,434.965 159.558 M161.458 169.336 L 161.458 175.651 160.175 176.604 C 158.850 177.588,158.594 177.612,158.594 176.753 C 158.594 176.477,158.195 175.852,157.708 175.365 C 155.811 173.467,153.223 174.359,152.191 177.266 L 151.722 178.585 150.441 177.704 C 148.492 176.363,146.579 176.530,144.857 178.192 L 144.010 179.008 144.010 171.015 L 144.010 163.021 152.734 163.021 L 161.458 163.021 161.458 169.336 M178.646 170.471 C 178.646 177.470,178.618 177.908,178.190 177.714 C 176.978 177.167,175.149 177.291,174.119 177.990 L 173.108 178.677 172.426 178.027 C 170.770 176.447,166.667 176.557,166.667 178.181 C 166.667 178.358,166.312 178.074,165.878 177.548 C 165.445 177.021,164.683 176.444,164.185 176.264 L 163.281 175.937 163.281 169.479 L 163.281 163.021 170.964 163.021 L 178.646 163.021 178.646 170.471 M195.833 170.816 C 195.833 179.805,195.943 179.466,193.412 178.269 C 191.679 177.449,191.165 177.448,189.193 178.260 C 187.233 179.067,186.904 179.064,185.474 178.226 C 184.301 177.539,182.230 177.430,180.924 177.986 C 180.496 178.169,180.469 177.720,180.469 170.601 L 180.469 163.021 188.151 163.021 L 195.833 163.021 195.833 170.816 M215.365 170.805 C 215.365 177.664,215.316 178.609,214.953 178.748 C 214.726 178.835,212.223 178.906,209.390 178.906 L 204.238 178.906 203.248 178.119 C 202.012 177.137,201.392 176.979,199.456 177.155 L 197.917 177.294 197.917 170.158 L 197.917 163.021 206.641 163.021 L 215.365 163.021 215.365 170.805 M264.583 169.380 L 264.583 175.739 263.672 176.302 C 263.170 176.612,262.593 177.105,262.388 177.397 C 262.032 177.904,262.004 177.881,261.732 176.873 C 260.826 173.506,256.577 173.670,255.339 177.120 L 254.818 178.571 253.516 177.671 C 251.816 176.496,250.225 176.545,248.359 177.829 L 247.135 178.671 247.135 170.846 L 247.135 163.021 255.859 163.021 L 264.583 163.021 264.583 169.380 M281.771 170.471 C 281.771 177.470,281.743 177.908,281.315 177.714 C 280.103 177.167,278.274 177.291,277.244 177.990 L 276.233 178.677 275.551 178.027 C 274.110 176.653,272.010 176.427,270.457 177.481 L 269.487 178.139 268.964 177.474 C 268.676 177.108,267.983 176.575,267.423 176.290 L 266.406 175.771 266.406 169.396 L 266.406 163.021 274.089 163.021 L 281.771 163.021 281.771 170.471 M299.157 170.867 L 299.226 178.583 298.661 178.731 C 298.339 178.815,297.444 178.604,296.582 178.241 C 294.707 177.452,294.274 177.454,292.318 178.260 C 290.372 179.062,289.971 179.062,288.672 178.262 C 287.551 177.572,285.739 177.395,284.522 177.858 L 283.854 178.112 283.854 170.563 L 283.854 163.013 291.471 163.082 L 299.089 163.151 299.157 170.867 M318.490 170.805 C 318.490 177.664,318.441 178.609,318.078 178.748 C 317.851 178.835,315.348 178.906,312.515 178.906 L 307.363 178.906 306.373 178.119 C 305.137 177.137,304.517 176.979,302.581 177.155 L 301.042 177.294 301.042 170.158 L 301.042 163.021 309.766 163.021 L 318.490 163.021 318.490 170.805 M358.564 166.732 C 358.547 167.340,358.480 167.633,358.414 167.383 C 358.327 167.048,358.028 166.927,357.294 166.927 C 356.743 166.927,356.107 166.856,355.881 166.769 C 355.106 166.472,355.468 166.146,356.576 166.142 C 357.184 166.140,357.858 166.024,358.073 165.885 C 358.288 165.747,358.493 165.631,358.529 165.629 C 358.564 165.627,358.580 166.123,358.564 166.732 M246.354 166.378 C 246.354 166.506,246.169 166.682,245.942 166.769 C 245.404 166.976,217.096 166.976,216.558 166.769 C 215.187 166.243,217.476 166.146,231.250 166.146 C 239.939 166.146,246.354 166.245,246.354 166.378 M330.208 166.378 C 330.208 166.838,329.316 166.927,324.740 166.927 C 322.185 166.927,319.909 166.856,319.683 166.769 C 318.479 166.307,319.789 166.146,324.740 166.146 C 327.775 166.146,330.208 166.249,330.208 166.378 M434.701 166.590 C 434.378 166.652,433.851 166.652,433.529 166.590 C 433.206 166.528,433.470 166.477,434.115 166.477 C 434.759 166.477,435.023 166.528,434.701 166.590 M246.354 173.307 C 246.354 173.650,244.502 173.698,231.250 173.698 C 217.998 173.698,216.146 173.650,216.146 173.307 C 216.146 172.965,217.998 172.917,231.250 172.917 C 244.502 172.917,246.354 172.965,246.354 173.307 M330.078 173.307 C 330.078 173.578,319.988 173.829,319.327 173.575 C 319.135 173.502,319.052 173.321,319.143 173.174 C 319.365 172.814,330.078 172.945,330.078 173.307 M358.564 173.763 C 358.547 174.229,358.480 174.404,358.414 174.154 C 358.319 173.790,358.009 173.698,356.882 173.698 C 355.799 173.698,355.469 173.607,355.469 173.307 C 355.469 173.003,355.816 172.917,357.031 172.917 L 358.594 172.917 358.564 173.763 M434.701 173.361 C 434.378 173.423,433.851 173.423,433.529 173.361 C 433.206 173.299,433.470 173.248,434.115 173.248 C 434.759 173.248,435.023 173.299,434.701 173.361 M329.796 179.846 C 331.000 180.307,329.690 180.469,324.740 180.469 C 321.490 180.469,319.271 180.369,319.271 180.223 C 319.271 179.807,328.805 179.465,329.796 179.846 M358.594 180.348 C 358.594 180.920,358.526 180.972,358.090 180.738 C 357.813 180.590,357.110 180.469,356.528 180.469 C 355.267 180.469,355.108 180.026,356.315 179.876 C 358.432 179.613,358.594 179.647,358.594 180.348 M246.354 180.208 C 246.354 180.379,241.151 180.469,231.265 180.469 C 221.487 180.469,216.120 180.377,216.016 180.208 C 215.909 180.036,221.004 179.948,231.104 179.948 C 241.097 179.948,246.354 180.038,246.354 180.208 M434.573 180.127 C 434.324 180.192,433.856 180.194,433.532 180.132 C 433.208 180.070,433.411 180.016,433.984 180.014 C 434.557 180.011,434.822 180.062,434.573 180.127 M214.583 180.990 C 214.921 181.208,214.915 181.243,214.538 181.246 C 214.299 181.248,213.742 181.553,213.301 181.924 C 212.861 182.295,212.500 182.475,212.500 182.324 C 212.500 182.173,212.063 181.753,211.528 181.390 L 210.556 180.729 212.374 180.733 C 213.374 180.735,214.368 180.851,214.583 180.990 M308.594 181.120 C 308.415 181.335,308.167 181.510,308.041 181.510 C 307.915 181.510,307.813 181.335,307.813 181.120 C 307.813 180.895,308.048 180.729,308.365 180.729 C 308.827 180.729,308.865 180.793,308.594 181.120 M317.708 180.990 C 318.026 181.195,318.031 181.243,317.733 181.246 C 317.532 181.248,316.975 181.549,316.496 181.914 C 316.017 182.280,315.625 182.460,315.625 182.314 C 315.625 182.169,315.188 181.753,314.653 181.390 L 313.681 180.729 315.499 180.733 C 316.499 180.735,317.493 180.851,317.708 180.990 M155.754 181.591 C 155.904 181.921,156.369 182.321,156.786 182.478 C 157.943 182.915,157.839 185.776,156.641 186.494 C 156.211 186.751,155.667 187.080,155.431 187.225 C 155.119 187.418,154.838 187.368,154.387 187.039 C 154.048 186.791,153.548 186.466,153.277 186.315 C 152.338 185.795,152.407 182.842,153.367 182.479 C 153.786 182.321,154.252 181.921,154.402 181.591 C 154.553 181.260,154.857 180.990,155.078 180.990 C 155.299 180.990,155.603 181.260,155.754 181.591 M170.729 181.644 C 170.965 182.003,171.428 182.366,171.758 182.448 C 172.904 182.736,172.820 186.050,171.655 186.492 C 171.275 186.637,170.765 186.935,170.522 187.155 C 170.123 187.517,170.009 187.506,169.350 187.049 C 168.948 186.771,168.415 186.469,168.164 186.379 C 167.880 186.276,167.707 185.942,167.705 185.490 C 167.704 185.092,167.630 184.325,167.541 183.787 C 167.390 182.877,167.433 182.791,168.159 182.538 C 168.588 182.388,169.069 181.979,169.229 181.628 C 169.603 180.809,170.186 180.815,170.729 181.644 M185.558 181.621 C 185.786 181.968,186.331 182.378,186.769 182.531 C 187.488 182.781,187.550 182.888,187.403 183.624 C 187.313 184.073,187.240 184.839,187.240 185.325 C 187.240 186.052,187.111 186.260,186.524 186.483 C 186.130 186.633,185.609 186.935,185.366 187.155 C 184.967 187.517,184.853 187.506,184.194 187.049 C 183.792 186.771,183.258 186.469,183.008 186.379 C 182.695 186.266,182.552 185.936,182.552 185.327 C 182.552 184.839,182.479 184.073,182.389 183.624 C 182.242 182.891,182.305 182.781,183.004 182.537 C 183.432 182.388,183.913 181.979,184.073 181.628 C 184.443 180.816,185.029 180.813,185.558 181.621 M200.402 181.621 C 200.629 181.968,201.174 182.378,201.613 182.531 C 202.332 182.781,202.394 182.888,202.247 183.624 C 202.157 184.073,202.083 184.839,202.083 185.325 C 202.083 186.052,201.955 186.260,201.368 186.483 C 200.974 186.633,200.445 186.942,200.193 187.170 C 199.771 187.552,199.687 187.543,199.151 187.048 C 198.830 186.752,198.333 186.468,198.047 186.417 C 197.007 186.230,196.995 182.709,198.034 182.448 C 198.364 182.366,198.827 182.003,199.063 181.644 C 199.598 180.826,199.878 180.821,200.402 181.621 M205.469 181.088 C 205.469 181.142,205.293 181.332,205.078 181.510 C 204.758 181.776,204.688 181.758,204.688 181.412 C 204.688 181.180,204.863 180.990,205.078 180.990 C 205.293 180.990,205.469 181.034,205.469 181.088 M258.896 181.628 C 259.056 181.979,259.518 182.381,259.922 182.522 C 261.011 182.902,261.011 186.084,259.923 186.498 C 259.550 186.639,259.043 186.938,258.796 187.162 C 258.387 187.532,258.281 187.525,257.624 187.082 C 257.226 186.814,256.679 186.476,256.407 186.331 C 255.490 185.841,255.554 182.846,256.489 182.521 C 256.891 182.380,257.351 181.979,257.511 181.628 C 257.671 181.277,257.982 180.990,258.203 180.990 C 258.424 180.990,258.736 181.277,258.896 181.628 M273.852 181.641 C 274.087 181.999,274.588 182.440,274.965 182.621 C 275.342 182.802,275.639 183.095,275.625 183.272 C 275.611 183.449,275.581 184.183,275.560 184.902 C 275.525 186.074,275.446 186.239,274.805 186.483 C 274.412 186.633,273.884 186.941,273.633 187.168 C 273.217 187.545,273.137 187.545,272.721 187.168 C 272.470 186.941,271.943 186.633,271.549 186.483 C 271.007 186.277,270.833 186.035,270.830 185.488 C 270.829 185.091,270.755 184.325,270.666 183.787 C 270.515 182.877,270.558 182.791,271.284 182.538 C 271.713 182.388,272.194 181.979,272.354 181.628 C 272.727 180.810,273.311 180.815,273.852 181.641 M288.683 181.621 C 288.911 181.968,289.456 182.378,289.894 182.531 C 290.613 182.781,290.675 182.888,290.528 183.624 C 290.438 184.073,290.365 184.839,290.365 185.325 C 290.365 186.052,290.236 186.260,289.649 186.483 C 289.255 186.633,288.728 186.941,288.477 187.168 C 288.061 187.545,287.981 187.545,287.565 187.168 C 287.314 186.941,286.786 186.633,286.393 186.483 C 285.806 186.260,285.677 186.052,285.677 185.325 C 285.677 184.839,285.604 184.073,285.514 183.624 C 285.366 182.883,285.426 182.782,286.184 182.518 C 286.655 182.354,287.119 181.959,287.252 181.609 C 287.554 180.813,288.157 180.819,288.683 181.621 M303.634 181.609 C 303.763 181.949,304.217 182.349,304.643 182.498 C 305.600 182.831,305.699 185.825,304.769 186.318 C 304.509 186.455,303.966 186.788,303.561 187.056 C 302.901 187.495,302.780 187.504,302.389 187.150 C 302.149 186.933,301.641 186.637,301.262 186.492 C 300.097 186.050,300.013 182.736,301.159 182.448 C 301.489 182.366,301.952 182.003,302.188 181.644 C 302.727 180.820,303.328 180.806,303.634 181.609 M247.906 184.049 C 247.912 184.085,247.741 184.115,247.526 184.115 C 247.222 184.115,247.140 183.784,247.158 182.617 L 247.180 181.120 247.537 182.552 C 247.734 183.340,247.900 184.014,247.906 184.049 M144.624 183.398 C 144.759 183.943,144.707 184.115,144.406 184.115 C 144.100 184.115,144.015 183.807,144.033 182.747 C 144.055 181.362,144.144 181.460,144.624 183.398 M154.196 183.902 C 153.912 184.654,154.279 185.417,154.925 185.417 C 156.175 185.417,156.376 183.523,155.141 183.381 C 154.588 183.317,154.371 183.437,154.196 183.902 M169.112 183.705 C 168.564 185.132,170.242 186.168,170.869 184.790 C 171.102 184.279,171.096 184.040,170.840 183.732 C 170.423 183.230,169.301 183.212,169.112 183.705 M183.961 183.984 C 183.727 184.917,184.001 185.417,184.748 185.417 C 185.502 185.417,186.046 184.607,185.804 183.844 C 185.549 183.039,184.172 183.143,183.961 183.984 M199.010 183.646 C 198.351 184.305,198.845 185.417,199.797 185.417 C 200.464 185.417,200.965 184.259,200.527 183.732 C 200.131 183.254,199.441 183.215,199.010 183.646 M257.296 183.719 C 256.731 184.399,257.365 185.473,258.270 185.369 C 259.317 185.248,259.353 183.506,258.311 183.385 C 257.932 183.341,257.488 183.487,257.296 183.719 M272.309 183.507 C 272.026 183.790,272.111 184.767,272.448 185.104 C 273.278 185.934,274.521 184.905,273.958 183.854 C 273.691 183.355,272.675 183.141,272.309 183.507 M287.079 183.709 C 286.688 184.727,287.642 185.783,288.477 185.257 C 289.460 184.638,289.036 183.333,287.851 183.333 C 287.506 183.333,287.158 183.502,287.079 183.709 M301.944 183.609 C 301.646 184.091,302.065 185.115,302.634 185.296 C 303.409 185.542,304.021 184.867,303.805 184.006 C 303.627 183.296,302.311 183.015,301.944 183.609 M319.093 183.612 C 319.964 183.854,320.079 183.976,320.014 184.594 C 319.973 184.981,320.144 185.589,320.395 185.944 C 320.835 186.568,320.831 186.603,320.255 187.043 C 319.466 187.646,319.312 187.801,318.901 188.397 C 318.576 188.870,318.511 188.876,317.916 188.486 C 317.566 188.257,316.996 188.029,316.650 187.980 C 315.962 187.882,315.272 185.144,315.884 184.940 C 316.034 184.890,316.333 184.508,316.549 184.091 C 316.980 183.257,317.476 183.163,319.093 183.612 M155.469 184.397 C 155.469 185.031,154.860 184.942,154.734 184.288 C 154.684 184.031,154.817 183.854,155.059 183.854 C 155.301 183.854,155.469 184.077,155.469 184.397 M170.313 184.397 C 170.313 185.031,169.704 184.942,169.577 184.288 C 169.527 184.031,169.660 183.854,169.903 183.854 C 170.144 183.854,170.313 184.077,170.313 184.397 M185.241 184.026 C 185.476 184.261,184.893 184.925,184.606 184.747 C 184.247 184.525,184.334 183.854,184.722 183.854 C 184.913 183.854,185.147 183.931,185.241 184.026 M200.148 184.144 C 200.345 184.461,199.760 184.939,199.426 184.733 C 199.312 184.662,199.219 184.436,199.219 184.229 C 199.219 183.788,199.890 183.726,200.148 184.144 M258.594 184.201 C 258.594 184.685,258.344 184.884,257.934 184.726 C 257.498 184.559,257.739 183.854,258.231 183.854 C 258.431 183.854,258.594 184.010,258.594 184.201 M273.391 184.288 C 273.265 184.942,272.656 185.031,272.656 184.397 C 272.656 184.077,272.824 183.854,273.066 183.854 C 273.308 183.854,273.441 184.031,273.391 184.288 M288.542 184.083 C 288.542 184.411,287.777 184.999,287.592 184.814 C 287.325 184.547,287.723 183.854,288.143 183.854 C 288.362 183.854,288.542 183.957,288.542 184.083 M303.237 184.085 C 303.407 184.360,302.661 185.039,302.435 184.814 C 302.219 184.597,302.532 183.854,302.841 183.854 C 302.980 183.854,303.158 183.958,303.237 184.085 M317.373 185.057 C 316.684 185.747,317.644 187.311,318.446 186.805 C 319.172 186.347,319.013 185.042,318.219 184.949 C 317.856 184.907,317.475 184.955,317.373 185.057 M193.099 185.668 C 194.061 185.797,194.147 185.875,194.225 186.692 C 194.272 187.179,194.489 187.851,194.708 188.186 C 195.089 188.766,195.069 188.816,194.300 189.254 C 193.856 189.507,193.492 189.779,193.491 189.859 C 193.482 190.661,192.763 190.949,191.902 190.496 C 191.415 190.240,190.840 189.946,190.625 189.844 C 189.751 189.426,189.796 187.261,190.702 186.183 C 191.155 185.642,191.646 185.274,191.792 185.364 C 191.938 185.455,192.526 185.591,193.099 185.668 M266.487 185.677 C 267.278 185.677,267.730 186.189,267.549 186.881 C 267.470 187.185,267.584 187.549,267.820 187.745 C 268.459 188.275,268.306 189.009,267.466 189.444 C 267.047 189.661,266.629 190.074,266.537 190.362 C 266.339 190.986,266.161 191.005,265.190 190.508 C 264.785 190.301,264.248 190.070,263.997 189.995 C 263.685 189.903,263.540 189.592,263.538 189.006 C 263.535 188.536,263.429 187.985,263.300 187.782 C 262.928 187.195,264.785 185.106,265.391 185.431 C 265.644 185.566,266.138 185.677,266.487 185.677 M281.653 185.677 C 282.262 185.677,282.856 186.762,282.462 187.156 C 282.378 187.240,282.548 187.614,282.841 187.985 L 283.372 188.662 282.767 189.121 C 281.969 189.726,281.814 189.880,281.401 190.480 C 281.080 190.947,281.004 190.955,280.435 190.587 C 280.096 190.367,279.512 190.111,279.138 190.019 C 277.988 189.736,277.876 187.519,278.945 186.189 C 279.646 185.316,279.826 185.222,280.385 185.434 C 280.736 185.568,281.307 185.677,281.653 185.677 M297.070 185.835 C 297.249 185.882,297.396 186.296,297.396 186.755 C 297.396 187.214,297.574 187.787,297.793 188.028 C 298.293 188.580,298.039 189.282,297.270 189.475 C 296.945 189.557,296.551 189.907,296.392 190.254 C 296.048 191.009,296.020 191.010,294.534 190.282 C 292.873 189.468,292.556 187.696,293.806 186.208 C 294.659 185.191,294.655 185.192,297.070 185.835 M311.198 185.651 C 311.920 185.780,312.125 185.949,312.187 186.462 C 312.229 186.818,312.464 187.499,312.708 187.974 C 313.173 188.882,312.778 189.583,311.799 189.583 C 311.612 189.583,311.458 189.678,311.458 189.794 C 311.458 190.424,310.725 190.989,310.331 190.662 C 310.110 190.479,309.611 190.243,309.223 190.140 C 308.202 189.867,307.516 187.347,308.294 186.727 C 308.568 186.508,308.933 186.055,309.104 185.722 C 309.323 185.295,309.544 185.171,309.851 185.301 C 310.090 185.403,310.697 185.561,311.198 185.651 M148.118 185.722 C 148.346 185.950,148.585 185.954,149.062 185.737 C 149.862 185.372,150.382 185.880,150.197 186.846 C 150.126 187.217,150.225 187.623,150.427 187.791 C 150.960 188.233,150.855 188.905,150.157 189.511 C 149.814 189.809,149.421 190.254,149.284 190.500 C 149.063 190.895,148.916 190.908,148.019 190.619 C 147.462 190.438,146.859 190.253,146.680 190.206 C 146.501 190.159,146.354 189.881,146.354 189.588 C 146.354 189.295,146.209 188.822,146.031 188.537 C 145.772 188.123,145.773 187.927,146.036 187.564 C 146.217 187.314,146.540 186.729,146.754 186.263 C 147.159 185.380,147.601 185.205,148.118 185.722 M164.259 186.121 C 164.439 186.363,164.524 186.756,164.448 186.994 C 164.373 187.232,164.490 187.575,164.708 187.756 C 165.284 188.234,165.193 188.998,164.518 189.347 C 164.196 189.514,163.695 189.938,163.406 190.290 C 162.903 190.900,162.843 190.911,162.103 190.530 C 161.677 190.310,161.141 190.077,160.911 190.010 C 160.080 189.770,160.061 187.334,160.882 186.284 C 161.674 185.270,163.560 185.179,164.259 186.121 M178.477 185.698 C 179.379 185.949,179.467 186.047,179.344 186.673 C 179.252 187.146,179.372 187.545,179.716 187.915 C 180.328 188.573,180.142 189.218,179.278 189.435 C 178.930 189.522,178.646 189.686,178.646 189.799 C 178.646 190.552,177.919 190.981,177.310 190.587 C 176.971 190.367,176.387 190.111,176.013 190.019 C 174.922 189.751,174.750 187.525,175.725 186.303 C 176.482 185.354,176.904 185.261,178.477 185.698 M208.860 185.811 C 209.000 185.898,209.118 186.284,209.123 186.669 C 209.127 187.054,209.303 187.597,209.513 187.875 C 210.092 188.640,209.978 189.077,209.115 189.403 C 208.685 189.565,208.333 189.767,208.333 189.851 C 208.333 190.656,207.610 190.950,206.746 190.496 C 206.258 190.240,205.684 189.946,205.469 189.844 C 204.712 189.482,204.640 187.317,205.359 186.542 C 205.706 186.168,205.990 185.745,205.990 185.603 C 205.990 185.338,208.374 185.511,208.860 185.811 M251.243 185.722 C 251.461 185.940,251.719 185.951,252.141 185.762 C 253.049 185.355,253.385 185.616,253.385 186.725 C 253.385 187.278,253.503 187.802,253.646 187.891 C 254.102 188.172,253.927 188.951,253.282 189.511 C 252.939 189.809,252.540 190.265,252.396 190.523 C 252.170 190.926,252.036 190.948,251.445 190.678 C 251.066 190.506,250.536 190.365,250.266 190.365 C 249.979 190.365,249.706 190.121,249.611 189.779 C 249.520 189.456,249.313 188.921,249.149 188.590 C 248.924 188.132,248.928 187.881,249.167 187.548 C 249.341 187.307,249.679 186.729,249.920 186.263 C 250.382 185.368,250.742 185.221,251.243 185.722 M318.359 185.938 C 318.359 186.128,318.213 186.334,318.034 186.393 C 317.840 186.458,317.708 186.273,317.708 185.938 C 317.708 185.602,317.840 185.417,318.034 185.482 C 318.213 185.541,318.359 185.747,318.359 185.938 M358.594 187.044 L 358.594 187.630 340.842 187.500 C 327.019 187.399,323.066 187.298,322.982 187.046 C 322.897 186.791,326.627 186.708,340.669 186.654 C 350.456 186.616,358.493 186.556,358.529 186.522 C 358.564 186.487,358.594 186.722,358.594 187.044 M243.164 187.044 C 242.985 187.581,219.792 187.648,219.792 187.112 C 219.792 186.767,221.234 186.719,231.532 186.719 C 240.809 186.719,243.250 186.787,243.164 187.044 M147.569 187.153 C 147.260 187.462,147.386 188.469,147.774 188.792 C 148.685 189.548,149.717 188.284,148.946 187.355 C 148.621 186.963,147.869 186.853,147.569 187.153 M161.892 187.153 C 161.476 187.569,161.729 188.770,162.269 188.942 C 163.044 189.188,163.656 188.514,163.440 187.652 C 163.277 187.000,162.345 186.700,161.892 187.153 M176.736 187.153 C 176.320 187.569,176.573 188.770,177.112 188.942 C 177.888 189.188,178.500 188.514,178.284 187.652 C 178.120 187.000,177.189 186.700,176.736 187.153 M191.592 187.141 C 190.902 187.830,191.863 189.395,192.665 188.889 C 193.391 188.431,193.232 187.125,192.438 187.032 C 192.075 186.990,191.694 187.039,191.592 187.141 M206.572 187.282 C 205.816 188.038,206.540 189.254,207.554 188.932 C 207.986 188.795,208.086 188.582,208.023 187.933 C 207.935 187.033,207.166 186.688,206.572 187.282 M250.826 187.203 C 250.629 187.330,250.516 187.753,250.565 188.179 C 250.666 189.063,251.695 189.252,252.184 188.477 C 252.710 187.642,251.665 186.662,250.826 187.203 M264.832 187.522 C 264.516 188.113,265.104 189.063,265.786 189.063 C 266.268 189.063,266.726 188.098,266.533 187.490 C 266.313 186.796,265.210 186.817,264.832 187.522 M279.861 187.153 C 279.314 187.700,280.008 189.063,280.833 189.063 C 281.147 189.063,281.527 187.964,281.377 187.490 C 281.220 186.994,280.238 186.775,279.861 187.153 M294.637 187.636 C 294.408 188.548,295.104 189.322,295.773 188.899 C 296.542 188.415,296.365 187.126,295.517 187.028 C 294.938 186.961,294.778 187.072,294.637 187.636 M309.549 187.153 C 308.952 187.750,309.709 189.063,310.651 189.063 C 311.151 189.063,311.500 188.065,311.198 187.500 C 310.931 187.001,309.914 186.787,309.549 187.153 M162.787 188.098 C 162.453 188.432,162.114 188.174,162.362 187.773 C 162.458 187.618,162.655 187.565,162.801 187.655 C 162.979 187.765,162.974 187.911,162.787 188.098 M177.805 187.972 C 177.862 188.142,177.722 188.281,177.496 188.281 C 177.269 188.281,177.083 188.096,177.083 187.869 C 177.083 187.409,177.644 187.489,177.805 187.972 M192.475 188.098 C 192.141 188.432,191.802 188.174,192.049 187.773 C 192.145 187.618,192.343 187.565,192.489 187.655 C 192.666 187.765,192.662 187.911,192.475 188.098 M207.552 187.912 C 207.552 188.372,206.991 188.292,206.831 187.809 C 206.774 187.639,206.913 187.500,207.140 187.500 C 207.367 187.500,207.552 187.686,207.552 187.912 M251.823 188.021 C 251.823 188.570,251.444 188.722,251.172 188.281 C 250.982 187.974,251.228 187.500,251.578 187.500 C 251.713 187.500,251.823 187.734,251.823 188.021 M265.997 187.731 C 266.076 187.858,265.966 188.107,265.752 188.284 C 265.430 188.551,265.365 188.513,265.365 188.053 C 265.365 187.494,265.735 187.306,265.997 187.731 M281.101 188.050 C 280.874 188.418,280.208 188.317,280.208 187.915 C 280.208 187.678,280.391 187.596,280.726 187.684 C 281.011 187.759,281.180 187.923,281.101 188.050 M295.787 187.934 C 295.661 188.587,295.052 188.677,295.052 188.043 C 295.052 187.723,295.220 187.500,295.462 187.500 C 295.704 187.500,295.837 187.677,295.787 187.934 M310.677 187.863 C 310.677 188.062,310.501 188.293,310.286 188.375 C 309.895 188.526,309.735 188.008,310.069 187.674 C 310.361 187.382,310.677 187.480,310.677 187.863 M148.638 188.070 C 148.477 188.553,147.917 188.633,147.917 188.173 C 147.917 187.946,148.102 187.760,148.329 187.760 C 148.556 187.760,148.695 187.900,148.638 188.070 M358.573 194.076 C 358.562 194.541,358.494 194.775,358.421 194.596 C 358.318 194.340,354.531 194.271,340.712 194.271 C 326.765 194.271,323.156 194.204,323.242 193.945 C 323.327 193.691,327.189 193.591,340.907 193.487 C 350.563 193.414,358.493 193.326,358.529 193.292 C 358.564 193.257,358.584 193.610,358.573 194.076 M242.578 193.880 C 242.578 194.049,238.562 194.165,231.185 194.208 C 224.919 194.246,219.792 194.177,219.792 194.057 C 219.792 193.936,219.871 193.757,219.968 193.660 C 220.261 193.368,242.578 193.585,242.578 193.880 M358.558 201.367 C 358.539 201.976,358.472 202.210,358.410 201.888 L 358.297 201.302 340.412 201.276 C 323.897 201.252,320.534 201.147,321.615 200.687 C 321.829 200.595,330.033 200.490,339.844 200.454 C 349.655 200.417,357.887 200.358,358.138 200.324 C 358.515 200.271,358.588 200.452,358.558 201.367 M244.124 200.754 C 244.427 201.244,243.108 201.302,231.652 201.302 C 220.177 201.302,218.229 201.222,218.229 200.749 C 218.229 200.445,243.936 200.451,244.124 200.754 M124.284 208.265 L 122.917 208.361 122.917 211.172 L 122.917 213.984 127.437 214.130 C 129.923 214.210,134.552 214.210,137.724 214.130 L 143.490 213.984 143.490 211.191 L 143.490 208.398 142.676 208.236 C 141.842 208.069,126.744 208.093,124.284 208.265 M246.840 214.518 C 246.820 215.485,246.753 216.011,246.691 215.686 L 246.577 215.096 231.101 215.165 L 215.625 215.234 215.625 214.648 L 215.625 214.063 231.120 214.063 L 246.615 214.063 246.615 213.411 C 246.615 213.053,246.673 212.760,246.745 212.760 C 246.816 212.760,246.859 213.551,246.840 214.518 M490.914 213.136 C 490.977 213.199,490.890 215.514,490.720 218.279 C 490.550 221.045,490.282 225.475,490.125 228.125 C 489.968 230.775,489.606 236.576,489.321 241.016 C 488.477 254.180,487.778 265.467,487.240 274.609 C 486.962 279.336,486.664 283.919,486.579 284.795 L 486.425 286.386 484.684 286.551 C 483.726 286.641,472.466 286.716,459.662 286.717 L 436.381 286.719 436.551 284.310 C 436.644 282.985,436.897 278.913,437.115 275.260 C 437.332 271.608,437.740 265.046,438.021 260.677 C 438.301 256.309,438.594 251.621,438.672 250.260 C 438.749 248.900,439.158 242.337,439.581 235.677 C 440.004 229.017,440.481 221.341,440.641 218.620 C 440.801 215.898,441.053 213.525,441.201 213.346 C 441.461 213.032,490.602 212.824,490.914 213.136 M438.097 214.776 C 437.208 214.827,435.684 214.827,434.711 214.777 C 433.739 214.726,434.466 214.685,436.328 214.685 C 438.190 214.684,438.986 214.725,438.097 214.776 M127.799 215.030 L 122.917 215.116 122.917 217.940 L 122.917 220.765 123.893 220.927 C 125.182 221.140,140.729 221.141,142.281 220.928 L 143.490 220.763 143.490 217.933 L 143.490 215.104 138.835 215.104 C 136.274 215.104,133.843 215.068,133.431 215.025 C 133.019 214.981,130.485 214.983,127.799 215.030 M444.591 217.145 C 444.407 217.262,444.199 218.098,444.123 219.029 C 443.789 223.131,440.365 279.773,440.365 281.209 L 440.365 282.813 461.685 282.813 L 483.006 282.813 483.167 281.576 C 483.457 279.344,486.235 235.063,486.937 221.484 C 487.088 218.562,487.068 217.261,486.870 217.126 C 486.484 216.864,445.004 216.883,444.591 217.145 M246.823 229.753 C 246.795 235.088,246.731 238.602,246.682 237.561 L 246.592 235.669 231.108 235.738 L 215.625 235.807 215.625 235.237 L 215.625 234.667 224.414 234.818 C 229.248 234.902,236.221 234.881,239.909 234.773 L 246.615 234.577 246.615 231.766 L 246.615 228.956 243.815 228.763 C 242.275 228.656,235.303 228.641,228.320 228.730 C 215.809 228.888,215.625 228.883,215.625 228.378 C 215.625 227.873,215.877 227.865,231.120 227.865 L 246.615 227.865 246.615 224.866 L 246.615 221.867 231.120 221.936 L 215.625 222.005 215.655 221.094 C 215.672 220.592,215.739 220.387,215.805 220.638 C 216.004 221.402,246.615 221.337,246.615 220.573 C 246.615 220.286,246.673 220.052,246.745 220.052 C 246.816 220.052,246.852 224.417,246.823 229.753 M495.685 264.453 C 497.329 283.216,498.741 299.300,498.823 300.195 L 498.973 301.823 497.533 301.823 L 496.094 301.823 496.094 294.429 C 496.094 287.927,496.044 287.016,495.682 286.877 C 495.455 286.790,493.522 286.719,491.385 286.719 C 487.858 286.719,487.500 286.677,487.501 286.263 C 487.501 286.012,487.732 282.292,488.014 277.995 C 488.893 264.585,490.354 241.145,490.887 231.901 C 491.167 227.031,491.478 222.402,491.578 221.615 C 491.796 219.880,491.611 217.943,495.685 264.453 M358.573 221.745 C 358.562 222.174,358.494 222.380,358.421 222.201 C 358.318 221.944,354.123 221.875,338.672 221.875 C 323.221 221.875,319.026 221.944,318.922 222.201 C 318.850 222.380,318.782 222.174,318.771 221.745 L 318.750 220.964 338.672 220.964 L 358.594 220.964 358.573 221.745 M437.826 221.547 C 436.930 221.598,435.465 221.598,434.570 221.547 C 433.675 221.496,434.408 221.455,436.198 221.455 C 437.988 221.455,438.721 221.496,437.826 221.547 M122.917 224.873 L 122.917 227.871 133.138 227.803 L 143.359 227.734 143.433 224.805 L 143.507 221.875 133.212 221.875 L 122.917 221.875 122.917 224.873 M338.821 227.865 L 358.594 227.865 358.573 228.711 C 358.562 229.176,358.494 229.411,358.421 229.232 C 358.318 228.975,354.092 228.906,338.520 228.906 L 318.750 228.906 318.780 227.930 C 318.797 227.393,318.864 227.158,318.930 227.409 C 319.042 227.838,320.209 227.865,338.821 227.865 M437.706 228.317 C 436.888 228.369,435.481 228.369,434.581 228.318 C 433.680 228.267,434.349 228.225,436.068 228.224 C 437.786 228.224,438.523 228.266,437.706 228.317 M125.317 228.840 L 122.899 228.926 122.973 231.716 L 123.047 234.505 133.268 234.573 L 143.490 234.641 143.490 231.813 L 143.490 228.984 141.106 228.815 C 138.796 228.651,130.245 228.665,125.317 228.840 M456.250 233.719 C 456.250 233.931,455.928 234.172,455.534 234.255 C 454.292 234.517,454.163 234.693,452.742 238.094 C 450.752 242.856,450.125 243.608,448.147 243.608 C 444.303 243.608,445.303 237.576,449.234 237.048 C 451.279 236.774,451.575 237.765,449.562 238.143 C 446.694 238.681,445.687 242.448,448.411 242.448 C 449.462 242.448,450.025 241.657,451.524 238.069 C 453.071 234.368,453.070 234.375,452.229 234.375 C 451.543 234.375,451.173 234.013,451.432 233.594 C 451.711 233.143,456.250 233.261,456.250 233.719 M466.197 233.887 C 466.154 234.084,465.651 235.449,465.080 236.922 C 464.054 239.565,463.995 240.104,464.729 240.104 C 464.935 240.104,465.104 240.280,465.104 240.495 C 465.104 240.995,461.221 241.065,460.729 240.573 C 459.484 239.327,460.962 236.979,462.992 236.979 C 463.944 236.979,463.978 236.944,464.783 235.131 C 465.502 233.513,466.467 232.664,466.197 233.887 M479.688 233.705 C 479.688 234.062,478.926 235.004,478.768 234.843 C 478.726 234.801,478.754 234.443,478.829 234.049 C 478.970 233.318,479.688 233.031,479.688 233.705 M358.594 235.270 L 358.594 235.807 338.672 235.807 C 318.924 235.807,318.750 235.803,318.750 235.286 C 318.750 234.770,318.930 234.765,338.672 234.749 L 358.594 234.732 358.594 235.270 M437.314 235.348 C 436.567 235.400,435.278 235.401,434.450 235.349 C 433.621 235.297,434.232 235.254,435.807 235.254 C 437.383 235.253,438.061 235.295,437.314 235.348 M481.666 236.654 C 481.743 236.904,482.033 237.611,482.309 238.223 C 483.138 240.057,482.599 240.885,480.577 240.885 C 479.200 240.885,479.059 240.288,480.404 240.154 C 481.424 240.053,481.778 239.630,481.487 238.861 C 481.292 238.347,481.195 238.311,480.747 238.591 C 479.930 239.101,479.803 238.627,480.416 237.364 C 481.013 236.135,481.434 235.896,481.666 236.654 M215.551 238.737 C 215.491 239.131,215.443 238.809,215.443 238.021 C 215.443 237.233,215.491 236.911,215.551 237.305 C 215.611 237.699,215.611 238.343,215.551 238.737 M458.796 237.124 C 459.633 237.710,459.600 239.382,458.736 240.246 C 457.381 241.601,454.969 240.713,455.315 238.987 C 455.673 237.195,457.501 236.217,458.796 237.124 M470.540 237.133 C 470.594 237.180,470.448 237.694,470.215 238.276 C 469.652 239.683,469.679 240.104,470.334 240.104 C 470.652 240.104,470.832 240.239,470.768 240.430 C 470.526 241.157,466.588 240.848,466.216 240.073 C 465.278 238.114,468.862 235.677,470.540 237.133 M473.285 237.204 C 473.361 237.327,473.232 237.917,472.997 238.515 C 472.695 239.283,472.651 239.683,472.847 239.879 C 473.399 240.430,474.161 239.837,474.743 238.402 C 475.061 237.620,475.483 236.979,475.681 236.979 C 476.199 236.979,476.129 237.555,475.391 239.373 C 474.606 241.304,474.605 241.328,475.260 241.536 C 475.973 241.763,475.925 242.447,475.195 242.452 C 474.408 242.457,474.109 242.686,473.606 243.669 C 472.772 245.296,471.436 245.732,470.217 244.773 C 468.807 243.663,469.798 241.667,471.759 241.667 C 472.814 241.667,473.482 241.428,473.290 241.119 C 473.211 240.990,472.927 240.885,472.659 240.885 C 471.563 240.885,471.322 240.205,471.900 238.740 C 472.632 236.883,472.902 236.583,473.285 237.204 M462.025 237.914 C 461.382 238.364,461.294 239.837,461.898 240.035 C 462.432 240.211,463.320 239.090,463.232 238.351 C 463.131 237.502,462.790 237.378,462.025 237.914 M467.566 238.139 C 466.840 238.866,466.759 239.380,467.301 239.830 C 468.101 240.494,469.343 239.003,468.916 237.891 C 468.702 237.332,468.299 237.406,467.566 238.139 M456.681 238.237 C 456.172 238.799,456.129 239.359,456.563 239.792 C 457.366 240.595,458.735 239.528,458.424 238.341 C 458.236 237.620,457.290 237.564,456.681 238.237 M412.891 240.502 C 412.747 240.555,399.779 243.182,384.071 246.341 L 355.513 252.083 347.721 252.083 C 343.435 252.083,335.662 252.005,330.446 251.908 L 320.964 251.734 348.828 246.083 L 376.693 240.433 394.922 240.420 C 404.948 240.412,413.034 240.449,412.891 240.502 M438.157 241.862 C 438.056 242.399,437.943 242.871,437.904 242.910 C 437.866 242.949,435.796 242.949,433.305 242.910 L 428.776 242.839 432.943 241.893 C 438.483 240.635,438.386 240.635,438.157 241.862 M470.985 242.791 C 470.314 243.281,470.555 244.123,471.393 244.220 C 472.009 244.292,473.177 243.232,473.177 242.603 C 473.177 242.304,471.449 242.452,470.985 242.791 M199.479 243.869 C 199.479 243.934,198.571 244.273,197.461 244.622 L 195.443 245.256 157.292 245.105 L 119.141 244.954 122.786 244.388 C 126.201 243.858,199.479 243.362,199.479 243.869 M299.740 244.670 L 297.786 245.306 259.245 245.244 L 220.703 245.182 224.219 244.627 C 227.682 244.080,228.290 244.071,264.714 244.053 L 301.693 244.034 299.740 244.670 M135.547 245.833 C 135.458 245.977,135.071 246.080,134.685 246.063 L 133.984 246.032 134.766 245.833 C 135.195 245.724,135.583 245.621,135.627 245.604 C 135.672 245.587,135.635 245.690,135.547 245.833 M129.167 246.094 C 128.654 246.425,128.050 246.425,128.255 246.094 C 128.344 245.951,128.673 245.835,128.987 245.837 C 129.451 245.841,129.484 245.889,129.167 246.094 M149.935 246.013 C 149.684 246.078,149.274 246.078,149.023 246.013 C 148.773 245.947,148.978 245.894,149.479 245.894 C 149.980 245.894,150.186 245.947,149.935 246.013 M328.488 248.947 C 314.481 251.786,305.412 253.155,304.781 252.524 C 304.339 252.082,337.554 245.878,340.365 245.879 L 343.620 245.879 328.488 248.947 M125.781 246.354 C 125.566 246.493,125.215 246.607,125.000 246.607 C 124.653 246.607,124.653 246.579,125.000 246.354 C 125.215 246.215,125.566 246.102,125.781 246.102 C 126.128 246.102,126.128 246.130,125.781 246.354 M140.625 246.354 C 140.625 246.497,140.303 246.606,139.909 246.596 C 139.274 246.580,139.252 246.552,139.714 246.354 C 140.425 246.049,140.625 246.049,140.625 246.354 M155.469 246.354 C 155.469 246.497,155.146 246.606,154.753 246.596 C 154.118 246.580,154.096 246.552,154.557 246.354 C 155.269 246.049,155.469 246.049,155.469 246.354 M170.052 246.354 C 170.052 246.497,169.730 246.603,169.336 246.589 L 168.620 246.563 169.271 246.354 C 169.629 246.239,169.951 246.134,169.987 246.120 C 170.023 246.105,170.052 246.211,170.052 246.354 M230.859 246.354 C 230.148 246.660,229.948 246.660,229.948 246.354 C 229.948 246.211,230.270 246.102,230.664 246.112 C 231.299 246.128,231.321 246.156,230.859 246.354 M245.573 246.354 C 245.063 246.683,244.531 246.683,244.531 246.354 C 244.531 246.211,244.854 246.096,245.247 246.098 C 245.805 246.101,245.877 246.157,245.573 246.354 M260.286 246.354 C 260.198 246.497,259.950 246.615,259.735 246.615 C 259.520 246.615,259.417 246.497,259.505 246.354 C 259.594 246.211,259.842 246.094,260.057 246.094 C 260.272 246.094,260.375 246.211,260.286 246.354 M266.341 246.273 C 266.090 246.339,265.680 246.339,265.430 246.273 C 265.179 246.208,265.384 246.154,265.885 246.154 C 266.387 246.154,266.592 246.208,266.341 246.273 M397.526 246.282 C 391.789 247.689,364.987 252.807,364.442 252.600 C 364.071 252.459,363.346 252.344,362.830 252.344 C 360.910 252.344,362.544 251.958,376.613 249.090 C 390.769 246.203,391.076 246.153,394.531 246.154 C 396.465 246.154,397.813 246.212,397.526 246.282 M256.901 246.615 C 256.813 246.758,256.483 246.873,256.170 246.871 C 255.706 246.868,255.672 246.820,255.990 246.615 C 256.503 246.283,257.106 246.283,256.901 246.615 M271.745 246.615 C 271.838 246.765,271.596 246.873,271.174 246.871 C 270.606 246.868,270.530 246.811,270.833 246.615 C 271.334 246.291,271.545 246.291,271.745 246.615 M287.435 246.534 C 287.184 246.599,286.774 246.599,286.523 246.534 C 286.273 246.468,286.478 246.415,286.979 246.415 C 287.480 246.415,287.686 246.468,287.435 246.534 M120.649 247.208 C 124.449 247.240,127.540 247.283,127.516 247.304 C 126.636 248.092,120.125 248.696,112.784 248.671 L 104.818 248.644 108.854 247.789 C 111.074 247.319,113.081 246.983,113.315 247.043 C 113.548 247.102,116.848 247.176,120.649 247.208 M141.536 247.926 C 138.259 248.649,137.926 248.673,131.120 248.659 L 124.089 248.645 126.302 248.153 C 129.804 247.376,131.993 247.206,138.672 247.192 L 144.922 247.179 141.536 247.926 M159.375 247.852 C 156.808 248.476,156.171 248.521,148.958 248.589 L 141.276 248.662 144.661 247.926 C 147.907 247.221,148.338 247.190,155.078 247.188 L 162.109 247.187 159.375 247.852 M177.344 248.047 C 173.238 248.957,163.020 249.374,159.505 248.775 C 156.313 248.231,164.775 247.268,173.269 247.209 L 181.380 247.153 177.344 248.047 M222.456 247.477 L 229.156 247.526 225.581 248.245 C 222.088 248.948,221.824 248.963,214.193 248.896 L 206.380 248.828 210.286 248.010 C 212.435 247.560,214.544 247.244,214.974 247.309 C 215.404 247.374,218.770 247.449,222.456 247.477 M242.969 248.204 C 239.609 248.901,239.141 248.933,232.422 248.920 L 225.391 248.906 228.255 248.272 C 231.178 247.625,240.761 247.105,244.864 247.370 L 246.484 247.475 242.969 248.204 M260.156 248.191 C 256.785 248.903,256.358 248.933,249.740 248.921 L 242.839 248.908 246.094 248.187 C 249.208 247.497,249.660 247.465,256.510 247.457 L 263.672 247.448 260.156 248.191 M278.776 248.321 C 274.362 249.246,269.339 249.454,262.500 248.994 L 260.026 248.828 263.281 248.138 C 266.410 247.474,266.855 247.447,274.740 247.448 L 282.943 247.448 278.776 248.321 M454.667 248.036 C 456.466 248.967,455.827 250.803,453.494 251.402 L 452.365 251.693 453.136 252.839 C 454.594 255.008,453.876 257.450,451.600 258.063 C 449.498 258.629,447.660 257.314,447.657 255.243 C 447.656 254.181,449.396 252.228,450.102 252.499 C 450.689 252.724,450.624 253.045,449.896 253.522 C 449.030 254.090,448.607 255.196,448.931 256.047 C 449.674 258.001,452.865 257.117,452.865 254.957 C 452.865 254.174,451.045 251.591,450.450 251.529 C 450.274 251.511,449.859 251.468,449.527 251.434 C 448.112 251.288,448.585 250.283,450.082 250.255 C 450.252 250.251,450.571 249.882,450.792 249.433 C 451.514 247.967,453.293 247.326,454.667 248.036 M482.555 248.372 C 482.556 248.623,482.059 250.049,481.450 251.541 C 480.841 253.034,480.459 254.296,480.601 254.345 C 481.839 254.778,481.663 255.469,480.315 255.469 C 479.020 255.469,479.008 255.095,480.209 252.083 C 481.790 248.114,482.546 246.918,482.555 248.372 M452.409 249.095 C 451.644 249.635,451.664 250.164,452.456 250.363 C 453.457 250.614,454.479 250.110,454.380 249.414 C 454.275 248.678,453.237 248.510,452.409 249.095 M113.542 250.100 L 109.505 250.930 102.083 250.813 L 94.661 250.696 98.047 249.985 C 101.314 249.298,101.715 249.273,109.505 249.272 L 117.578 249.271 113.542 250.100 M130.599 250.148 C 126.439 251.030,126.422 251.031,119.531 251.009 L 112.630 250.987 116.667 250.130 C 120.658 249.283,120.782 249.273,127.734 249.269 L 134.766 249.265 130.599 250.148 M147.786 250.144 C 143.649 251.011,143.572 251.017,136.719 251.002 L 129.818 250.987 133.854 250.130 C 137.849 249.282,137.964 249.273,144.922 249.272 L 151.953 249.271 147.786 250.144 M167.188 250.146 L 163.151 251.025 155.078 251.006 L 147.005 250.987 151.042 250.130 L 155.078 249.273 163.151 249.270 L 171.224 249.268 167.188 250.146 M214.844 250.403 C 210.425 251.365,207.374 251.509,199.585 251.122 L 195.964 250.943 199.349 250.238 C 202.601 249.562,203.052 249.534,210.807 249.529 L 218.880 249.524 214.844 250.403 M231.901 250.404 C 227.763 251.271,227.687 251.277,220.833 251.263 L 213.932 251.248 217.969 250.391 C 221.963 249.542,222.078 249.533,229.036 249.532 L 236.068 249.531 231.901 250.404 M253.103 249.583 C 252.195 250.454,244.497 251.307,238.140 251.241 L 231.380 251.172 235.286 250.353 C 238.819 249.612,253.745 248.967,253.103 249.583 M268.359 250.404 L 264.193 251.277 256.250 251.263 L 248.307 251.248 252.344 250.391 L 256.380 249.533 264.453 249.532 L 272.526 249.531 268.359 250.404 M472.786 250.018 C 472.786 250.219,472.581 250.423,472.331 250.471 C 471.882 250.558,471.696 250.005,472.054 249.647 C 472.327 249.374,472.786 249.607,472.786 250.018 M107.249 251.431 C 107.179 251.502,104.962 251.796,102.323 252.084 C 99.685 252.372,97.153 252.677,96.697 252.762 C 95.961 252.899,95.884 252.857,96.006 252.389 C 96.127 251.928,95.986 251.842,94.882 251.696 C 94.188 251.604,93.444 251.492,93.229 251.446 C 93.014 251.400,96.110 251.349,100.109 251.332 C 104.107 251.316,107.320 251.360,107.249 251.431 M112.956 251.492 C 112.419 251.548,111.540 251.548,111.003 251.492 C 110.465 251.436,110.905 251.390,111.979 251.390 C 113.053 251.390,113.493 251.436,112.956 251.492 M459.751 251.881 C 460.880 253.494,459.247 255.704,457.200 255.334 C 456.388 255.188,456.372 255.205,455.506 257.281 C 455.006 258.480,454.477 259.375,454.269 259.375 C 453.722 259.375,453.788 259.127,455.374 255.212 C 456.965 251.285,456.723 251.550,458.905 251.344 C 459.147 251.321,459.528 251.563,459.751 251.881 M464.435 251.876 C 465.013 252.701,464.447 253.474,463.142 253.646 C 461.652 253.842,461.745 254.327,463.307 254.512 C 465.552 254.778,465.444 255.285,463.147 255.264 C 461.407 255.248,460.938 254.921,460.938 253.724 C 460.938 251.837,463.470 250.499,464.435 251.876 M469.091 251.853 C 469.587 252.646,469.062 253.365,468.494 252.669 C 467.910 251.954,467.660 251.938,467.077 252.583 C 466.251 253.495,466.630 254.278,467.969 254.427 C 469.630 254.612,469.594 255.309,467.917 255.417 C 465.933 255.545,465.118 254.339,466.016 252.604 C 466.690 251.300,468.473 250.865,469.091 251.853 M471.991 252.995 C 471.515 254.242,471.566 254.414,472.526 254.778 C 472.930 254.931,472.565 255.189,471.726 255.343 C 470.098 255.642,469.980 254.405,471.413 252.049 C 472.177 250.793,472.580 251.453,471.991 252.995 M477.922 251.729 C 478.025 251.792,477.885 252.413,477.611 253.109 C 477.113 254.371,477.113 254.374,477.646 254.513 C 478.665 254.780,477.995 255.336,476.556 255.419 C 473.962 255.568,473.141 254.944,473.701 253.247 C 474.252 251.577,476.412 250.800,477.922 251.729 M240.365 252.104 C 239.577 252.222,237.071 252.509,234.797 252.743 C 232.522 252.976,230.471 253.228,230.239 253.301 C 229.899 253.409,229.888 253.385,230.181 253.176 C 230.721 252.791,230.342 252.136,229.508 252.011 C 229.105 251.950,231.706 251.898,235.286 251.895 C 239.656 251.892,241.326 251.960,240.365 252.104 M457.596 252.421 C 456.821 253.355,456.914 254.427,457.771 254.427 C 458.667 254.427,459.203 253.748,459.066 252.786 C 458.970 252.112,458.044 251.882,457.596 252.421 M462.630 252.334 C 462.152 252.531,462.147 252.564,462.565 252.734 C 463.100 252.953,463.802 252.736,463.802 252.352 C 463.802 252.039,463.365 252.032,462.630 252.334 M475.000 252.604 C 474.386 253.218,474.327 253.977,474.858 254.418 C 475.335 254.813,475.675 254.606,476.193 253.606 C 476.905 252.228,476.074 251.530,475.000 252.604 M126.028 262.643 C 126.192 262.807,125.646 263.262,124.476 263.935 C 122.471 265.089,122.331 265.281,123.372 265.438 C 123.766 265.498,122.038 265.545,119.531 265.543 C 116.568 265.540,115.657 265.486,116.927 265.387 C 118.586 265.257,119.125 265.085,120.508 264.239 C 122.822 262.824,122.668 262.596,119.271 262.409 C 118.340 262.357,119.422 262.332,121.676 262.352 C 123.930 262.373,125.889 262.503,126.028 262.643 M115.104 262.806 C 111.902 263.262,112.278 263.829,115.957 264.090 C 118.170 264.247,117.868 264.268,114.176 264.211 C 109.791 264.143,108.019 263.843,109.398 263.403 C 110.477 263.058,114.133 262.551,115.495 262.558 C 116.787 262.564,116.784 262.566,115.104 262.806 M144.987 262.955 C 143.447 263.001,140.928 263.001,139.388 262.955 C 137.848 262.909,139.108 262.871,142.188 262.871 C 145.267 262.871,146.527 262.909,144.987 262.955 M135.875 263.200 C 135.626 263.265,135.158 263.267,134.834 263.205 C 134.510 263.143,134.714 263.089,135.286 263.087 C 135.859 263.084,136.124 263.135,135.875 263.200 M133.529 263.461 C 133.278 263.526,132.868 263.526,132.617 263.461 C 132.367 263.395,132.572 263.342,133.073 263.342 C 133.574 263.342,133.779 263.395,133.529 263.461 M144.531 263.549 C 142.025 263.640,139.945 263.735,139.909 263.759 C 139.588 263.972,140.003 264.310,140.690 264.395 C 141.156 264.453,140.833 264.510,139.974 264.522 C 137.784 264.554,135.868 264.236,136.645 263.970 C 137.857 263.555,140.649 263.348,144.792 263.365 L 149.089 263.382 144.531 263.549 M158.594 263.521 C 158.005 263.858,154.725 264.156,155.205 263.829 C 155.485 263.638,154.978 263.540,153.382 263.476 C 152.009 263.421,152.650 263.370,155.078 263.342 C 157.359 263.316,158.822 263.390,158.594 263.521 M166.483 263.522 C 163.940 263.681,162.487 264.286,164.466 264.363 C 165.315 264.395,165.222 264.436,163.932 264.597 C 159.544 265.145,159.115 265.171,159.115 264.898 C 159.115 264.745,158.851 264.569,158.529 264.507 C 158.206 264.445,158.448 264.378,159.067 264.358 C 159.685 264.339,160.446 264.183,160.759 264.012 C 161.640 263.530,163.165 263.345,166.146 263.360 L 168.880 263.373 166.483 263.522 M179.036 263.561 L 179.818 263.584 178.776 264.077 C 178.069 264.411,177.191 264.564,176.042 264.553 C 174.546 264.538,174.447 264.508,175.195 264.292 C 176.230 263.993,176.287 263.621,175.326 263.446 C 174.932 263.374,175.430 263.366,176.432 263.427 C 177.435 263.488,178.607 263.548,179.036 263.561 M131.448 263.721 C 131.199 263.786,130.731 263.788,130.407 263.726 C 130.083 263.664,130.286 263.610,130.859 263.607 C 131.432 263.604,131.697 263.655,131.448 263.721 M172.396 263.713 C 172.181 263.785,171.833 263.899,171.622 263.967 C 171.284 264.076,171.284 264.120,171.622 264.333 C 171.879 264.496,171.385 264.577,170.117 264.579 C 167.909 264.584,167.641 264.210,169.596 263.853 C 171.032 263.591,173.066 263.489,172.396 263.713 M186.849 263.981 C 185.541 264.503,182.408 264.765,183.194 264.286 C 183.927 263.839,185.090 263.597,186.589 263.580 L 187.891 263.565 186.849 263.981 M193.490 264.063 C 192.473 264.619,188.989 264.837,189.940 264.285 C 190.333 264.056,190.358 263.958,190.070 263.776 C 189.854 263.638,190.635 263.552,192.057 263.557 L 194.401 263.563 193.490 264.063 M206.901 263.789 C 203.959 263.924,203.201 264.170,204.343 264.620 C 204.604 264.723,203.045 264.815,200.879 264.825 C 198.713 264.836,196.545 264.911,196.061 264.993 C 195.212 265.136,195.200 265.127,195.703 264.708 C 196.134 264.349,196.592 264.300,198.351 264.428 C 199.682 264.525,200.510 264.485,200.565 264.321 C 200.702 263.910,203.492 263.603,206.901 263.626 L 210.026 263.646 206.901 263.789 M222.656 263.819 C 221.439 263.910,219.974 264.173,219.401 264.403 C 218.828 264.633,217.715 264.821,216.927 264.822 L 215.495 264.823 216.406 264.388 L 217.318 263.952 215.625 263.798 C 214.694 263.713,216.393 263.647,219.401 263.649 C 223.132 263.653,224.167 263.707,222.656 263.819 M228.699 263.950 C 228.379 264.175,228.184 264.468,228.266 264.601 C 228.354 264.744,227.525 264.839,226.252 264.833 C 224.104 264.823,224.094 264.820,224.870 264.398 C 226.447 263.541,229.853 263.142,228.699 263.950 M129.297 264.063 C 128.860 264.250,128.913 264.289,129.622 264.305 C 131.991 264.356,130.019 265.037,126.974 265.219 C 125.960 265.280,125.482 265.270,125.911 265.197 C 127.035 265.006,127.236 264.683,126.386 264.435 C 125.685 264.231,125.705 264.214,126.823 264.051 C 128.662 263.783,129.933 263.789,129.297 264.063 M145.443 264.063 C 144.279 264.359,142.761 264.359,142.578 264.063 C 142.476 263.897,143.111 263.813,144.321 263.833 C 145.749 263.856,146.029 263.913,145.443 264.063 M212.956 263.982 C 212.059 264.216,212.524 264.558,213.867 264.652 C 214.619 264.704,214.063 264.761,212.630 264.777 C 209.671 264.811,208.292 264.507,210.026 264.203 C 210.599 264.102,211.185 263.980,211.328 263.932 C 211.471 263.883,211.999 263.848,212.500 263.853 C 213.001 263.858,213.206 263.916,212.956 263.982 M235.103 264.205 C 234.715 264.416,233.484 264.651,232.368 264.728 L 230.339 264.868 231.641 264.358 C 233.275 263.717,236.243 263.587,235.103 264.205 M243.549 264.258 C 242.617 265.179,238.542 265.868,238.542 265.104 C 238.542 264.961,238.705 264.844,238.904 264.844 C 239.103 264.844,239.777 264.612,240.401 264.329 C 241.928 263.636,244.231 263.584,243.549 264.258 M152.076 264.311 C 151.219 264.814,148.269 264.971,148.665 264.494 C 148.933 264.170,149.452 264.064,150.748 264.070 C 151.889 264.076,152.339 264.157,152.076 264.311 M486.012 287.839 C 486.083 288.026,486.047 289.227,485.930 290.508 C 485.814 291.790,485.585 294.538,485.421 296.615 C 484.997 302.005,485.196 301.563,483.196 301.563 L 481.506 301.563 481.647 300.195 C 481.870 298.034,482.552 289.013,482.552 288.219 C 482.552 287.405,485.712 287.059,486.012 287.839 M439.583 289.568 C 439.583 291.597,438.864 300.663,438.647 301.367 C 438.533 301.736,438.204 301.823,436.928 301.823 L 435.350 301.823 435.523 298.893 C 435.748 295.075,436.166 289.972,436.355 288.737 L 436.504 287.760 438.044 287.760 L 439.583 287.760 439.583 289.568 M448.011 288.969 C 448.103 289.633,448.177 292.910,448.177 296.250 L 448.177 302.324 447.201 302.579 C 443.499 303.548,439.134 304.165,436.131 304.145 L 432.943 304.124 435.547 303.500 C 436.979 303.157,438.466 302.873,438.851 302.870 C 439.697 302.863,439.644 303.161,440.339 294.484 C 440.937 287.013,440.473 287.760,444.511 287.760 L 447.846 287.760 448.011 288.969 M453.218 288.737 C 453.427 289.999,453.435 300.871,453.227 301.411 C 453.103 301.734,452.662 301.823,451.174 301.823 C 448.812 301.823,448.965 302.310,448.965 294.792 C 448.965 287.275,448.814 287.760,451.168 287.760 L 453.057 287.760 453.218 288.737 M481.515 288.216 C 481.527 289.415,480.682 300.761,480.521 301.552 L 480.339 302.453 476.693 303.299 L 473.047 304.146 459.896 304.130 L 446.745 304.114 449.609 303.501 C 451.185 303.165,452.913 302.883,453.451 302.877 L 454.427 302.865 454.427 295.313 L 454.427 287.760 467.969 287.760 C 480.690 287.760,481.511 287.788,481.515 288.216 M494.925 288.346 C 495.004 288.669,495.035 291.976,494.995 295.697 L 494.922 302.462 490.625 303.312 C 486.866 304.055,485.888 304.154,482.813 304.099 L 479.297 304.036 482.541 303.310 C 484.325 302.910,485.815 302.553,485.853 302.515 C 485.890 302.478,486.165 299.407,486.464 295.690 C 486.764 291.973,487.063 288.669,487.129 288.346 C 487.247 287.771,487.319 287.760,491.016 287.760 C 494.705 287.760,494.785 287.772,494.925 288.346 M483.464 302.749 C 482.417 303.164,475.857 304.423,474.836 304.404 C 473.015 304.371,480.327 302.646,482.292 302.646 C 483.079 302.645,483.607 302.692,483.464 302.749 M434.375 303.415 C 432.639 303.855,428.112 304.365,428.776 304.044 C 429.551 303.671,433.662 302.912,434.896 302.915 L 436.328 302.919 434.375 303.415 M447.656 303.532 C 446.009 303.866,443.958 304.132,443.099 304.125 L 441.536 304.111 444.271 303.516 C 445.775 303.188,447.826 302.921,448.828 302.923 L 450.651 302.925 447.656 303.532 M493.359 303.391 C 489.742 304.113,488.075 304.220,491.146 303.532 C 492.650 303.196,494.290 302.921,494.792 302.922 C 495.307 302.923,494.686 303.126,493.359 303.391 M466.667 308.093 C 455.423 310.086,446.128 311.685,446.011 311.646 C 445.894 311.608,452.808 310.025,461.375 308.129 L 476.953 304.682 481.250 304.613 C 483.613 304.575,485.898 304.527,486.328 304.507 C 486.758 304.487,477.910 306.101,466.667 308.093 M408.808 309.071 C 398.828 311.315,390.576 313.239,390.470 313.346 C 390.364 313.454,399.807 313.542,411.454 313.542 L 432.630 313.542 450.885 309.496 C 460.926 307.271,469.434 305.347,469.792 305.220 C 470.179 305.082,461.651 304.989,448.698 304.990 L 426.953 304.991 408.808 309.071 M426.680 308.315 C 426.544 308.448,426.081 308.630,425.651 308.720 L 424.870 308.884 425.521 308.488 C 426.245 308.047,427.081 307.922,426.680 308.315 M448.698 308.984 C 448.340 309.189,447.930 309.357,447.786 309.357 C 447.643 309.357,447.819 309.189,448.177 308.984 C 448.535 308.780,448.945 308.612,449.089 308.612 C 449.232 308.612,449.056 308.780,448.698 308.984 M435.452 310.297 C 434.970 310.506,434.384 310.673,434.150 310.668 C 433.442 310.653,434.940 309.914,435.677 309.915 C 436.269 309.916,436.249 309.951,435.452 310.297 M411.778 310.678 C 411.309 310.964,410.723 311.195,410.475 311.192 C 409.732 311.183,411.213 310.169,411.979 310.163 C 412.605 310.158,412.597 310.178,411.778 310.678 M423.292 310.799 C 422.588 311.332,421.956 311.338,422.396 310.807 C 422.574 310.592,422.962 310.417,423.259 310.417 C 423.788 310.417,423.789 310.423,423.292 310.799 " stroke="none" fill="#000000" fill-rule="evenodd"></path></g></svg>